<svg xmlns="http://www.w3.org/2000/svg" viewBox="0 0 81 43"><defs><style>.cls-1{fill:#454545;}.cls-2{fill:none;}</style></defs><title>icon_train</title><g id="レイヤー_2" data-name="レイヤー 2"><g id="レイヤー_1-2" data-name="レイヤー 1"><g id="グループ_97" data-name="グループ 97"><g id="レイヤー_2-2" data-name="レイヤー 2"><g id="レイヤー_1-3" data-name="レイヤー 1"><path id="パス_55" data-name="パス 55" class="cls-1" d="M58.46,20a1.84,1.84,0,0,0-1.81-1.81H25A1.84,1.84,0,0,0,23.14,20h0V30h2.11a1,1,0,0,0-.07.45,1.57,1.57,0,0,0,1.66,1.43,1.54,1.54,0,0,0,1.43-1.43A1,1,0,0,0,28.2,30h4.6a.9.9,0,0,0-.08.45,1.58,1.58,0,0,0,1.66,1.43,1.54,1.54,0,0,0,1.44-1.43.9.9,0,0,0-.08-.45h9.81a1,1,0,0,0-.07.45,1.57,1.57,0,0,0,1.66,1.43,1.54,1.54,0,0,0,1.43-1.43A1,1,0,0,0,48.5,30h4.6a1,1,0,0,0-.07.45,1.57,1.57,0,0,0,1.66,1.43,1.54,1.54,0,0,0,1.43-1.43,1,1,0,0,0-.07-.45h2.41ZM30.23,24.13H26.46V20.58h3.77Zm5.66,0H32.05V20.58h3.77Zm13.74,0H45.78V20.58h3.77Zm5.66,0H51.44V20.58h3.78Z"/><path id="パス_56" data-name="パス 56" class="cls-1" d="M31.06,11.6a7.07,7.07,0,0,1-2.49,2.49,7.07,7.07,0,0,1,2.49,2.49,7.15,7.15,0,0,1,2.49-2.49A7.15,7.15,0,0,1,31.06,11.6Z"/><path id="パス_57" data-name="パス 57" class="cls-1" d="M50.61,11.6a7.07,7.07,0,0,1-2.49,2.49,7.07,7.07,0,0,1,2.49,2.49,7.15,7.15,0,0,1,2.49-2.49A7.79,7.79,0,0,1,50.61,11.6Z"/></g></g><rect id="長方形_184" data-name="長方形 184" class="cls-2" width="81" height="43"/></g></g></g></svg>