<svg xmlns="http://www.w3.org/2000/svg" viewBox="0 0 81.2 43.2"><defs><style>.cls-1{fill:#454545;}.cls-2{fill:none;}</style></defs><title>icon_bus</title><g id="レイヤー_2" data-name="レイヤー 2"><g id="レイヤー_1-2" data-name="レイヤー 1"><g id="グループ_98" data-name="グループ 98"><g id="レイヤー_2-2" data-name="レイヤー 2"><g id="レイヤー_1-3" data-name="レイヤー 1"><path id="パス_53" data-name="パス 53" class="cls-1" d="M58.8,15.5a2.09,2.09,0,0,0-2.12-2.12H27.09A2.5,2.5,0,0,0,24.71,15l-.62,1.41H28v6.54H22.5v4.42h4c0,.17-.08.26-.08.44A1.81,1.81,0,1,0,30,28v-.26a.76.76,0,0,0-.09-.44H51.2v.44a1.87,1.87,0,0,0,1.95,1.68,1.81,1.81,0,0,0,1.68-1.68,1.08,1.08,0,0,0-.09-.53H58.8ZM42,20.36H37.6V16.21H42Zm6.62,0H44.23V16.21h4.41Zm6.63,0H50.76V16.21h4.42Z"/></g></g><rect id="長方形_185" data-name="長方形 185" class="cls-2" width="81.2" height="43.2"/></g></g></g></svg>