<svg xmlns="http://www.w3.org/2000/svg" width="126" height="67" viewBox="0 0 126 67">
  <g id="グループ_98" data-name="グループ 98" transform="translate(-606 -5877)">
    <g id="レイヤー_2" data-name="レイヤー 2" transform="translate(637 5896)">
      <g id="レイヤー_1" data-name="レイヤー 1" transform="translate(0 0)">
        <path id="パス_53" data-name="パス 53" d="M63.94,3.8A3.8,3.8,0,0,0,60.14,0H8.214A4.677,4.677,0,0,0,3.946,2.733L2.835,5.159H9.617V16.617H0v7.921H7.03a3.025,3.025,0,0,0-.088.731,3.215,3.215,0,1,0,6.416,0,3.04,3.04,0,0,0-.1-.731H50.7a3.1,3.1,0,0,0-.146.906,3.215,3.215,0,0,0,6.416,0,3.1,3.1,0,0,0-.146-.906H63.94ZM34.462,12.394H26.687V5.086h7.775Zm11.692,0H38.335V5.086H46.1Zm11.692,0H49.983V5.086h7.761Z" transform="translate(0 0)" fill="#454545"/>
      </g>
    </g>
    <rect id="長方形_185" data-name="長方形 185" width="126" height="67" transform="translate(606 5877)" fill="none"/>
  </g>
</svg>
