<svg xmlns="http://www.w3.org/2000/svg" width="126" height="67" viewBox="0 0 126 67">
  <g id="グループ_97" data-name="グループ 97" transform="translate(-330 -5877)">
    <g id="レイヤー_2" data-name="レイヤー 2" transform="translate(357 5890)">
      <g id="レイヤー_1" data-name="レイヤー 1">
        <path id="パス_55" data-name="パス 55" d="M72.943,13A3.785,3.785,0,0,0,69.158,9.21H3.8A3.8,3.8,0,0,0,0,13.01V33.749H4.384a3.1,3.1,0,0,0-.146.906,3.215,3.215,0,0,0,6.416,0,3.1,3.1,0,0,0-.146-.906h9.441a3.1,3.1,0,0,0-.146.906,3.215,3.215,0,0,0,6.416,0,3.1,3.1,0,0,0-.146-.906H46.256a3.1,3.1,0,0,0-.146.906,3.215,3.215,0,0,0,6.416,0,3.1,3.1,0,0,0-.146-.906h9.441a3.668,3.668,0,0,0-.146.906,3.215,3.215,0,0,0,6.416,0,3.1,3.1,0,0,0-.146-.906h5ZM14.615,21.6H6.767V14.3h7.848Zm11.692,0H18.415V14.3H26.19Zm28.338,0H46.768V14.3h7.775Zm11.692,0H58.46V14.3h7.775Z" transform="translate(0 4.25)" fill="#454545"/>
        <path id="パス_56" data-name="パス 56" d="M12.854,0A15.433,15.433,0,0,1,7.68,5.159a15.39,15.39,0,0,1,5.174,5.174,15.273,15.273,0,0,1,5.159-5.174A15.317,15.317,0,0,1,12.854,0Z" transform="translate(3.544)" fill="#454545"/>
        <path id="パス_57" data-name="パス 57" d="M40.459,0A15.317,15.317,0,0,1,35.3,5.159a15.273,15.273,0,0,1,5.159,5.174,15.273,15.273,0,0,1,5.159-5.174A15.317,15.317,0,0,1,40.459,0Z" transform="translate(16.291)" fill="#454545"/>
      </g>
    </g>
    <rect id="長方形_184" data-name="長方形 184" width="126" height="67" transform="translate(330 5877)" fill="none"/>
  </g>
</svg>
