<svg xmlns="http://www.w3.org/2000/svg" viewBox="0 0 80.5 42.8"><defs><style>.cls-1{fill:#454545;}.cls-2{fill:none;}</style></defs><title>icon_car</title><g id="レイヤー_2" data-name="レイヤー 2"><g id="レイヤー_1-2" data-name="レイヤー 1"><g id="グループ_99" data-name="グループ 99"><g id="レイヤー_2-2" data-name="レイヤー 2"><g id="レイヤー_1-3" data-name="レイヤー 1"><path id="パス_54" data-name="パス 54" class="cls-1" d="M59.46,22.21l-3.22-1.27a10.73,10.73,0,0,1-5.76-5.07l-.81-1.5a2.53,2.53,0,0,0-2.19-1.61H32.27a2.52,2.52,0,0,0-2.18,1.61l-.81,1.5a10.59,10.59,0,0,1-5.65,5.07l-3.22,1.27v4.72h7.72v.58a2.54,2.54,0,0,0,5.07,0v-.12a1,1,0,0,0-.12-.58H46.9v.58a2.49,2.49,0,0,0,2.54,2.53A2.41,2.41,0,0,0,52,27.39V26.7h7.72V22.21Zm-21-3.57h-7l.69-1,.57-1.15a2,2,0,0,1,1.73-1.39h3.92Zm2.77,0V15.06h3.8a2.06,2.06,0,0,1,1.73,1.27l.58,1.15.69,1Z"/></g></g><rect id="長方形_186" data-name="長方形 186" class="cls-2" width="80.5" height="42.8"/></g></g></g></svg>