<svg xmlns="http://www.w3.org/2000/svg" viewBox="0 0 24.92 14.18"><defs><style>.cls-1{fill:#b6af7b;}</style></defs><title>facility_03</title><g id="レイヤー_2" data-name="レイヤー 2"><g id="レイヤー_1-2" data-name="レイヤー 1"><polygon class="cls-1" points="2.15 11.35 0 11.35 0 14.18 2.15 14.18 2.15 12.11 2.15 11.35 2.15 11.35"/><polygon class="cls-1" points="4.97 11.35 2.89 11.35 2.89 11.35 2.89 12.11 2.89 14.18 4.97 14.18 4.97 11.9 4.97 11.35 4.97 11.35"/><polygon class="cls-1" points="5.71 11.35 5.71 11.35 5.71 11.9 5.71 14.18 24.92 14.18 24.92 11.35 5.71 11.35"/><path class="cls-1" d="M7.64.05a4.24,4.24,0,0,0-.71,0A5.46,5.46,0,0,0,3.67.92a2.17,2.17,0,0,0-.88,2,13.46,13.46,0,0,1,.47,1.7,1.49,1.49,0,0,1-.51,1.15,3.42,3.42,0,0,1-1.15.52A2,2,0,0,0,.54,7a1.24,1.24,0,0,0,0,1.39c.79,1.11,2.91.62,3.36-.59.19-.5.09-1.1.36-1.56a1.79,1.79,0,0,1,1.18-.72C6.22,5.3,7,5.3,7.74,5.18a3.52,3.52,0,0,0,1.91-.86,2.42,2.42,0,0,0,.46-2.68A3.06,3.06,0,0,0,7.64.05Z"/></g></g></svg>