<svg xmlns="http://www.w3.org/2000/svg" viewBox="0 0 44.45 57.39"><defs><style>.cls-1{fill:#b6af7b;}</style></defs><title>facility_01</title><g id="レイヤー_2" data-name="レイヤー 2"><g id="レイヤー_1-2" data-name="レイヤー 1"><path class="cls-1" d="M44.45,10.46V0H0V57.39H44.45V11.7H0V10.46ZM38,4.18a1.59,1.59,0,1,1-1.58,1.58A1.58,1.58,0,0,1,38,4.18Zm-25.05,0a1.59,1.59,0,1,1-1.58,1.58A1.59,1.59,0,0,1,12.9,4.18Zm-6.44,0A1.59,1.59,0,1,1,4.87,5.76,1.58,1.58,0,0,1,6.46,4.18ZM22.17,23.25A11.07,11.07,0,1,1,11.1,34.32,11.07,11.07,0,0,1,22.17,23.25Z"/></g></g></svg>