<svg xmlns="http://www.w3.org/2000/svg" viewBox="0 0 22.26 22.26"><defs><style>.cls-1{fill:#fff;}</style></defs><title>facebook-square-brands</title><g id="レイヤー_2" data-name="レイヤー 2"><g id="レイヤー_1-2" data-name="レイヤー 1"><path id="facebook-square-brands" class="cls-1" d="M19.87,0H2.38A2.39,2.39,0,0,0,0,2.38V19.87a2.39,2.39,0,0,0,2.38,2.39H9.2V14.69H6.07V11.13H9.2V8.41a4.36,4.36,0,0,1,3.87-4.78,5.19,5.19,0,0,1,.79,0,18.13,18.13,0,0,1,2.75.24v3H15.06a1.79,1.79,0,0,0-2,1.53,2.67,2.67,0,0,0,0,.4v2.31h3.42l-.54,3.56H13.05v7.57h6.82a2.39,2.39,0,0,0,2.39-2.39V2.38A2.39,2.39,0,0,0,19.87,0Z"/></g></g></svg>