<svg xmlns="http://www.w3.org/2000/svg" width="13.178" height="13.175" viewBox="0 0 13.178 13.175">
  <path id="instagram-brands" d="M6.515,35.035a3.378,3.378,0,1,0,3.378,3.378A3.373,3.373,0,0,0,6.515,35.035Zm0,5.574a2.2,2.2,0,1,1,2.2-2.2,2.2,2.2,0,0,1-2.2,2.2Zm4.3-5.712a.788.788,0,1,1-.788-.788A.786.786,0,0,1,10.819,34.9Zm2.237.8a3.9,3.9,0,0,0-1.064-2.761,3.925,3.925,0,0,0-2.761-1.064c-1.088-.062-4.348-.062-5.436,0a3.919,3.919,0,0,0-2.761,1.061A3.912,3.912,0,0,0-.029,35.693c-.062,1.088-.062,4.348,0,5.436a3.9,3.9,0,0,0,1.064,2.761A3.93,3.93,0,0,0,3.8,44.954c1.088.062,4.348.062,5.436,0a3.9,3.9,0,0,0,2.761-1.064,3.925,3.925,0,0,0,1.064-2.761C13.118,40.041,13.118,36.784,13.057,35.7Zm-1.405,6.6A2.223,2.223,0,0,1,10.4,43.548a14.52,14.52,0,0,1-3.884.265,14.633,14.633,0,0,1-3.884-.265A2.223,2.223,0,0,1,1.379,42.3a14.52,14.52,0,0,1-.265-3.884,14.633,14.633,0,0,1,.265-3.884,2.223,2.223,0,0,1,1.252-1.252,14.52,14.52,0,0,1,3.884-.265,14.634,14.634,0,0,1,3.884.265,2.223,2.223,0,0,1,1.252,1.252,14.52,14.52,0,0,1,.265,3.884A14.511,14.511,0,0,1,11.651,42.3Z" transform="translate(0.075 -31.825)" fill="#fff"/>
</svg>
