<svg xmlns="http://www.w3.org/2000/svg" width="13.171" height="13.171" viewBox="0 0 13.171 13.171">
  <path id="facebook-square-brands" d="M11.759,32H1.411A1.411,1.411,0,0,0,0,33.411V43.759a1.411,1.411,0,0,0,1.411,1.411H5.446V40.693H3.594V38.585H5.446V36.979A2.572,2.572,0,0,1,8.2,34.143a11.22,11.22,0,0,1,1.632.142v1.793H8.913a1.054,1.054,0,0,0-1.188,1.139v1.369H9.747l-.323,2.108h-1.7v4.478h4.035a1.411,1.411,0,0,0,1.411-1.411V33.411A1.411,1.411,0,0,0,11.759,32Z" transform="translate(0 -32)" fill="#fff"/>
</svg>
