<svg xmlns="http://www.w3.org/2000/svg" width="13.024" height="12.928" viewBox="0 0 13.024 12.928">
  <g id="レイヤー_2" data-name="レイヤー 2" transform="translate(0.03)">
    <g id="レイヤー_1" data-name="レイヤー 1" transform="translate(-0.03)">
      <path id="パス_48" data-name="パス 48" d="M5.958,20.945A5.977,5.977,0,0,1,4.589,19a10.179,10.179,0,0,0-1.289.328,6.56,6.56,0,0,0,2.658,1.617Z" transform="translate(-1.417 -8.255)" fill="#fff"/>
      <path id="パス_49" data-name="パス 49" d="M9.075,20.935V18.43a17.531,17.531,0,0,0-2.505.2A3.625,3.625,0,0,0,9.075,20.935Z" transform="translate(-2.838 -8.008)" fill="#fff"/>
      <path id="パス_50" data-name="パス 50" d="M15,20.945a6.5,6.5,0,0,0,2.658-1.64A9.823,9.823,0,0,0,16.374,19,5.978,5.978,0,0,1,15,20.945Z" transform="translate(-6.5 -8.255)" fill="#fff"/>
      <path id="パス_51" data-name="パス 51" d="M12,20.935a3.621,3.621,0,0,0,2.511-2.3A17.632,17.632,0,0,0,12,18.43Z" transform="translate(-5.197 -8.008)" fill="#fff"/>
      <path id="パス_52" data-name="パス 52" d="M5.829.55a6.469,6.469,0,0,0-2.669,1.7,10.858,10.858,0,0,0,1.306.339A6.057,6.057,0,0,1,5.829.55Z" transform="translate(-1.356 -0.239)" fill="#fff"/>
      <path id="パス_53" data-name="パス 53" d="M8.432,15.2V12.32H5.09A10.066,10.066,0,0,0,5.7,15.436,20.358,20.358,0,0,1,8.432,15.2Z" transform="translate(-2.195 -5.353)" fill="#fff"/>
      <path id="パス_54" data-name="パス 54" d="M9.023,0A3.717,3.717,0,0,0,6.45,2.449a17.616,17.616,0,0,0,2.573.209Z" transform="translate(-2.785)" fill="#fff"/>
      <path id="パス_55" data-name="パス 55" d="M8.424,8.7V5.523A18.526,18.526,0,0,1,5.636,5.28,10.462,10.462,0,0,0,5.07,8.673Z" transform="translate(-2.186 -2.294)" fill="#fff"/>
      <path id="パス_56" data-name="パス 56" d="M12,12.32V15.2a20.291,20.291,0,0,1,2.737.232,10.066,10.066,0,0,0,.611-3.116Z" transform="translate(-5.197 -5.353)" fill="#fff"/>
      <path id="パス_57" data-name="パス 57" d="M12,5.541V8.713h3.359a10.462,10.462,0,0,0-.566-3.393A18.532,18.532,0,0,1,12,5.541Z" transform="translate(-5.197 -2.311)" fill="#fff"/>
      <path id="パス_58" data-name="パス 58" d="M18.442,12.32a10.462,10.462,0,0,1-.622,3.212,9.579,9.579,0,0,1,1.476.407,6.481,6.481,0,0,0,1.453-3.619Z" transform="translate(-7.726 -5.353)" fill="#fff"/>
      <path id="パス_59" data-name="パス 59" d="M17.91,4.761a10.711,10.711,0,0,1,.566,3.518h2.313A6.5,6.5,0,0,0,19.4,4.32a9.614,9.614,0,0,1-1.487.441Z" transform="translate(-7.765 -1.877)" fill="#fff"/>
      <path id="パス_60" data-name="パス 60" d="M2.935,15.528a10.462,10.462,0,0,1-.628-3.218H0a6.481,6.481,0,0,0,1.442,3.625,9.4,9.4,0,0,1,1.493-.407Z" transform="translate(0.017 -5.349)" fill="#fff"/>
      <path id="パス_61" data-name="パス 61" d="M2.289,8.3a10.711,10.711,0,0,1,.566-3.518A9.427,9.427,0,0,1,1.361,4.36,6.464,6.464,0,0,0-.03,8.319Z" transform="translate(0.03 -1.894)" fill="#fff"/>
      <path id="パス_62" data-name="パス 62" d="M12,0V2.658a17.633,17.633,0,0,0,2.579-.209A3.714,3.714,0,0,0,12,0Z" transform="translate(-5.197)" fill="#fff"/>
      <path id="パス_63" data-name="パス 63" d="M15.13.55a6.141,6.141,0,0,1,1.363,2.036A10.858,10.858,0,0,0,17.8,2.247,6.5,6.5,0,0,0,15.13.55Z" transform="translate(-6.557 -0.239)" fill="#fff"/>
    </g>
  </g>
</svg>
