<svg xmlns="http://www.w3.org/2000/svg" viewBox="0 0 64.94 76.29"><defs><style>.cls-1{fill:#bab27c;}.cls-2{fill:#fff;}</style></defs><title>アセット 1</title><g id="レイヤー_2" data-name="レイヤー 2"><g id="レイヤー_1-2" data-name="レイヤー 1"><path class="cls-1" d="M64.94,32.47A32.47,32.47,0,1,0,25.7,64.22a1.8,1.8,0,0,1,1.27,1l5,10.72a.6.6,0,0,0,1.08,0l5-10.71a1.86,1.86,0,0,1,1.29-1A32.48,32.48,0,0,0,64.94,32.47Z"/><path class="cls-2" d="M12.81,28a.28.28,0,0,1,.27-.27H14.4a.28.28,0,0,1,.27.27v3.76h4.62V28a.27.27,0,0,1,.27-.27h1.3a.28.28,0,0,1,.27.27v9.39a.27.27,0,0,1-.27.26h-1.3a.26.26,0,0,1-.27-.26V33.46H14.67v3.92a.27.27,0,0,1-.27.26H13.08a.27.27,0,0,1-.27-.26Z"/><path class="cls-2" d="M25.41,28a.28.28,0,0,1,.27-.27h5.77a.27.27,0,0,1,.27.27v1.16a.26.26,0,0,1-.27.27H27.26v2.33h3.5A.28.28,0,0,1,31,32v1.17a.27.27,0,0,1-.27.27h-3.5v2.48h4.19a.27.27,0,0,1,.27.27v1.17a.26.26,0,0,1-.27.26H25.68a.27.27,0,0,1-.27-.26Z"/><path class="cls-2" d="M35.45,28a.28.28,0,0,1,.27-.27h4.06a3.07,3.07,0,0,1,3.09,3.05,3.13,3.13,0,0,1-2.1,2.86l1.94,3.6a.27.27,0,0,1-.24.41H41a.26.26,0,0,1-.23-.12l-1.88-3.76H37.3v3.62a.27.27,0,0,1-.27.26H35.72a.27.27,0,0,1-.27-.26Zm4.17,4.25A1.44,1.44,0,0,0,41,30.8a1.41,1.41,0,0,0-1.4-1.38H37.31v2.82Z"/><path class="cls-2" d="M46.6,28a.27.27,0,0,1,.27-.27h5.76a.27.27,0,0,1,.27.27v1.16a.26.26,0,0,1-.27.27H48.44v2.33h3.5a.28.28,0,0,1,.27.27v1.17a.27.27,0,0,1-.27.27h-3.5v2.48h4.19a.27.27,0,0,1,.27.27v1.17a.26.26,0,0,1-.27.26H46.87a.26.26,0,0,1-.27-.26Z"/></g></g></svg>