<svg xmlns="http://www.w3.org/2000/svg" viewBox="0 0 22.27 22.26"><defs><style>.cls-1{fill:#fff;}</style></defs><title>instagram-brands</title><g id="レイヤー_2" data-name="レイヤー 2"><g id="レイヤー_1-2" data-name="レイヤー 1"><path id="instagram-brands" class="cls-1" d="M11.14,5.42a5.71,5.71,0,1,0,5.71,5.71h0a5.71,5.71,0,0,0-5.7-5.71Zm0,9.42a3.72,3.72,0,1,1,3.71-3.71,3.71,3.71,0,0,1-3.71,3.71ZM18.4,5.19a1.33,1.33,0,1,1-1.33-1.33h0a1.32,1.32,0,0,1,1.34,1.32v0Zm3.78,1.35a6.6,6.6,0,0,0-1.79-4.66A6.65,6.65,0,0,0,15.72.08C13.88,0,8.37,0,6.53.08A6.6,6.6,0,0,0,1.87,1.87,6.58,6.58,0,0,0,.08,6.54C0,8.37,0,13.88.08,15.72a6.59,6.59,0,0,0,1.8,4.67,6.68,6.68,0,0,0,4.67,1.8c1.84.1,7.35.1,9.19,0a6.61,6.61,0,0,0,4.66-1.8,6.63,6.63,0,0,0,1.8-4.67c.1-1.84.1-7.34,0-9.17ZM19.81,17.7a3.74,3.74,0,0,1-2.11,2.11,24.9,24.9,0,0,1-6.56.45,24.87,24.87,0,0,1-6.56-.45A3.73,3.73,0,0,1,2.46,17.7,24.08,24.08,0,0,1,2,11.14a25,25,0,0,1,.45-6.57A3.77,3.77,0,0,1,4.57,2.46,24.15,24.15,0,0,1,11.14,2a24.9,24.9,0,0,1,6.56.45,3.79,3.79,0,0,1,2.12,2.11,24.55,24.55,0,0,1,.44,6.57,24.48,24.48,0,0,1-.44,6.56Z"/></g></g></svg>