<svg xmlns="http://www.w3.org/2000/svg" viewBox="0 0 94.01 58.75"><defs><style>.cls-1{fill:#2f2725;}.cls-2{fill:#0d0d0d;}.cls-3{fill:#bab27c;}.cls-4{fill:none;}</style></defs><title>アセット 2</title><g id="レイヤー_2" data-name="レイヤー 2"><g id="レイヤー_2-2" data-name="レイヤー 2"><path class="cls-1" d="M14,50.73H15.2L11.5,54.4l3.83,4.21H14.11L10.88,55l-.22.23v3.39H9.78V50.73h.88v3.38Z"/><path class="cls-1" d="M18.67,50.73h1l2,3.51,2-3.51h1l-2.58,4.5v3.38h-.88V55.23Z"/><path class="cls-1" d="M36.22,54.68a4.11,4.11,0,1,1-4.11-4.09A4.09,4.09,0,0,1,36.22,54.68Zm-7.34,0a3.23,3.23,0,1,0,3.23-3.26A3.25,3.25,0,0,0,28.88,54.67Z"/><path class="cls-1" d="M42.22,58.61h-.87V51.54H38.59v-.81H45v.81H42.22Z"/><path class="cls-1" d="M55.78,54.68a4.11,4.11,0,1,1-4.11-4.09A4.09,4.09,0,0,1,55.78,54.68Zm-7.34,0a3.24,3.24,0,1,0,3.23-3.26A3.26,3.26,0,0,0,48.44,54.67Z"/><path class="cls-1" d="M60.09,57.8h3.62v.81h-4.5V50.73h.88Z"/><path class="cls-1" d="M73.67,54.68a4.11,4.11,0,1,1-4.11-4.09A4.09,4.09,0,0,1,73.67,54.68Zm-7.34,0a3.23,3.23,0,1,0,3.23-3.26A3.25,3.25,0,0,0,66.33,54.67Z"/><path class="cls-1" d="M84.91,54.65a3.74,3.74,0,0,1-.81,2.78,3.89,3.89,0,0,1-2.92,1.32,4.08,4.08,0,1,1,3.39-6.45l-.64.59a3.21,3.21,0,0,0-2.71-1.48A3.27,3.27,0,0,0,78,54.7a3.16,3.16,0,0,0,.92,2.23,3.34,3.34,0,0,0,2.24,1A2.7,2.7,0,0,0,84,55.47H79.79v-.82Z"/><path class="cls-1" d="M88,50.73h1l2,3.51,2-3.51h1l-2.58,4.5v3.38h-.88V55.23Z"/><path class="cls-2" d="M13,6.54V4.41h.66V9.69H13V7.15H10.48V9.69H9.82V4.41h.66V6.54Z"/><path class="cls-2" d="M21.09,7.05a2.77,2.77,0,0,1-5.54,0,2.77,2.77,0,0,1,5.54,0Zm-.66,0a2.11,2.11,0,1,0-4.22,0,2.11,2.11,0,1,0,4.22,0Z"/><path class="cls-2" d="M24.77,9.69h-.65V5H22.3v-.6h4.29V5H24.77Z"/><path class="cls-2" d="M28.93,4.41h2.84V5H29.59V6.49h2.12v.6H29.59v2h2.18v.6H28.93Z"/><path class="cls-2" d="M34.78,9.09h2.39v.6H34.12V4.41h.66Z"/><polyline class="cls-2" points="51.75 39.92 38.38 39.92 47.98 29.05 51.61 29.05 51.61 39.92"/><polygon class="cls-2" points="47.5 13.32 37.91 13.32 37.91 39.4 47.5 28.54 47.5 13.32"/><path class="cls-3" d="M74.75,6.61a3.62,3.62,0,0,0,.79-5.11c-3.15-4-7.82,1-4,3.53C76.11,8.14,69,7,66.91,8.71c-3.19,2.55,4.27,7.93.32,8.48-1.84.25-3.76-1-5.61-2a12.5,12.5,0,0,0-4-1.73c-1-.15-7.39-1.2-13,6-4.82,6.25-10.31,9.08-13.42,3.12C28,16.37,22.7,14.37,20.05,17.14c-2.28,2.37-.56,5.41-2.88,6.64-1.66.89-4.21,2.55-4.72,4.71-1.17,5,2,6.61,1.77,9.43-.11,1.33-.58,3.21-4.18,3.29-2.74,0-6.12.15-7.91,1.36C-3.5,46.36,3.29,53.29,8,49.9c2.64-1.9,2.81-6.5,5.41-7.39s4.12.53,6.25.65c5.8.33,6.38-2.6,8.86-6s4.9-8,8.59-3.52c4.2,5.11,11.2,7.17,13.81-1.56S56,12.82,61.35,17.24l.27.23h0c10.54,9.28,15.84,3.77,9.48-4.13C68.27,9.81,70.9,9.76,74.75,6.61Z"/><polygon class="cls-4" points="56.64 12.54 56.64 12.54 52.24 12.54 52.24 12.54 56.64 12.54"/><polygon class="cls-4" points="51.75 12.54 47.5 12.54 47.5 12.54 51.75 12.54 51.75 12.54"/><polygon class="cls-2" points="56.64 28.55 66.23 39.41 66.23 13.32 56.64 13.32 56.64 28.55"/><polygon class="cls-2" points="56.64 12.54 56.64 12.54 66.23 12.54 66.23 12.54 66.16 12.54 56.83 3.9 52.38 3.9 52.38 12.54 56.64 12.54"/><polygon class="cls-2" points="47.5 12.54 51.61 12.54 51.61 3.9 47.24 3.9 37.91 12.54 37.91 12.54 37.91 12.54 47.5 12.54 47.5 12.54"/><polygon class="cls-2" points="56.16 29.05 52.38 29.05 52.38 39.92 65.75 39.92 56.16 29.05"/><polygon class="cls-4" points="52.24 12.54 52.24 12.54 51.75 12.54 51.75 12.54 52.24 12.54"/></g></g></svg>