<?xml version="1.0" encoding="utf-8"?>
<!-- Generator: Adobe Illustrator 24.0.3, SVG Export Plug-In . SVG Version: 6.00 Build 0)  -->
<svg version="1.1" id="レイヤー_1" xmlns="http://www.w3.org/2000/svg" xmlns:xlink="http://www.w3.org/1999/xlink" x="0px"
	 y="0px" viewBox="0 0 94 58.8" style="enable-background:new 0 0 94 58.8;" xml:space="preserve">
<style type="text/css">
	.st0{fill:#FFFFFF;}
	.st1{fill:#BAB27C;}
</style>
<title>アセット 2</title>
<g id="レイヤー_2_1_">
	<g id="レイヤー_2-2">
		<path class="st0" d="M14,50.7h1.2l-3.7,3.7l3.8,4.2h-1.2L10.9,55l-0.2,0.2v3.4H9.8v-7.9h0.9v3.4L14,50.7z"/>
		<path class="st0" d="M18.7,50.7h1l2,3.5l2-3.5h1l-2.6,4.5v3.4h-0.9v-3.4L18.7,50.7z"/>
		<path class="st0" d="M36.2,54.7c0,2.3-1.8,4.1-4.1,4.1S28,57,28,54.7c0-2.3,1.8-4.1,4.1-4.1c0,0,0,0,0,0
			C34.4,50.6,36.2,52.4,36.2,54.7C36.2,54.7,36.2,54.7,36.2,54.7z M28.9,54.7c0,1.8,1.5,3.2,3.3,3.2c1.8,0,3.2-1.5,3.2-3.3
			c0-1.8-1.5-3.2-3.2-3.2C30.3,51.4,28.9,52.9,28.9,54.7L28.9,54.7z"/>
		<path class="st0" d="M42.2,58.6h-0.9v-7.1h-2.8v-0.8H45v0.8h-2.8V58.6z"/>
		<path class="st0" d="M55.8,54.7c0,2.3-1.8,4.1-4.1,4.1s-4.1-1.8-4.1-4.1c0-2.3,1.8-4.1,4.1-4.1c0,0,0,0,0,0
			C53.9,50.6,55.8,52.4,55.8,54.7C55.8,54.7,55.8,54.7,55.8,54.7z M48.4,54.7c0,1.8,1.5,3.2,3.3,3.2c1.8,0,3.2-1.5,3.2-3.3
			c0-1.8-1.5-3.2-3.2-3.2C49.9,51.4,48.4,52.9,48.4,54.7L48.4,54.7z"/>
		<path class="st0" d="M60.1,57.8h3.6v0.8h-4.5v-7.9h0.9V57.8z"/>
		<path class="st0" d="M73.7,54.7c0,2.3-1.8,4.1-4.1,4.1c-2.3,0-4.1-1.8-4.1-4.1s1.8-4.1,4.1-4.1c0,0,0,0,0,0
			C71.8,50.6,73.7,52.4,73.7,54.7C73.7,54.7,73.7,54.7,73.7,54.7z M66.3,54.7c0,1.8,1.5,3.2,3.3,3.2c1.8,0,3.2-1.5,3.2-3.3
			c0-1.8-1.5-3.2-3.2-3.2C67.8,51.4,66.3,52.9,66.3,54.7L66.3,54.7z"/>
		<path class="st0" d="M84.9,54.7c0.1,1-0.2,2-0.8,2.8c-0.7,0.8-1.8,1.3-2.9,1.3c-2.3,0-4-1.9-4-4.1c0-2.3,1.9-4,4.1-4
			c1.3,0,2.5,0.7,3.3,1.7l-0.6,0.6c-0.6-0.9-1.6-1.5-2.7-1.5c-1.8,0-3.2,1.5-3.2,3.3c0,0.8,0.3,1.6,0.9,2.2c0.6,0.6,1.4,1,2.2,1
			c1.5,0.1,2.7-1,2.8-2.5h-4.2v-0.8H84.9z"/>
		<path class="st0" d="M88,50.7h1l2,3.5l2-3.5h1l-2.6,4.5v3.4h-0.9v-3.4L88,50.7z"/>
		<path class="st0" d="M13,6.5V4.4h0.7v5.3H13V7.2h-2.5v2.5H9.8V4.4h0.7v2.1H13z"/>
		<path class="st0" d="M21.1,7.1c0,1.5-1.2,2.8-2.8,2.8s-2.8-1.2-2.8-2.8s1.2-2.8,2.8-2.8S21.1,5.5,21.1,7.1z M20.4,7.1
			c0-1.2-0.9-2.1-2.1-2.1c-1.2,0-2.1,0.9-2.1,2.1c0,0,0,0,0,0c0,1.2,0.9,2.1,2.1,2.1C19.5,9.2,20.4,8.2,20.4,7.1
			C20.4,7.1,20.4,7.1,20.4,7.1z"/>
		<path class="st0" d="M24.8,9.7h-0.6V5h-1.8V4.4h4.3V5h-1.8V9.7z"/>
		<path class="st0" d="M28.9,4.4h2.8V5h-2.2v1.5h2.1v0.6h-2.1v2h2.2v0.6h-2.8V4.4z"/>
		<path class="st0" d="M34.8,9.1h2.4v0.6h-3V4.4h0.7V9.1z"/>
		<polyline class="st0" points="51.8,39.9 38.4,39.9 48,29 51.6,29 51.6,39.9 		"/>
		<polygon class="st0" points="47.5,13.3 37.9,13.3 37.9,39.4 47.5,28.5 		"/>
		<path class="st1" d="M74.8,6.6c1.6-1.2,2-3.4,0.8-5.1c0,0,0,0,0-0.1c-3.2-4-7.8,1-4,3.5c4.6,3.1-2.5,2-4.6,3.7
			c-3.2,2.6,4.3,7.9,0.3,8.5c-1.8,0.2-3.8-1-5.6-2c-1.2-0.8-2.6-1.4-4-1.7c-1-0.1-7.4-1.2-13,6c-4.8,6.2-10.3,9.1-13.4,3.1
			c-3.2-6.2-8.5-8.2-11.2-5.4c-2.3,2.4-0.6,5.4-2.9,6.6c-1.7,0.9-4.2,2.5-4.7,4.7c-1.2,5,2,6.6,1.8,9.4c-0.1,1.3-0.6,3.2-4.2,3.3
			c-2.7,0-6.1,0.2-7.9,1.4c-5.6,3.8,1.2,10.7,5.9,7.3c2.6-1.9,2.8-6.5,5.4-7.4s4.1,0.5,6.2,0.7c5.8,0.3,6.4-2.6,8.9-6s4.9-8,8.6-3.5
			c4.2,5.1,11.2,7.2,13.8-1.6S56,12.8,61.3,17.2l0.3,0.2l0,0c10.5,9.3,15.8,3.8,9.5-4.1C68.3,9.8,70.9,9.8,74.8,6.6z"/>
		<polygon class="st0" points="56.6,12.5 56.6,12.5 52.2,12.5 52.2,12.5 		"/>
		<polygon class="st0" points="51.8,12.5 47.5,12.5 47.5,12.5 51.8,12.5 		"/>
		<polygon class="st0" points="56.6,28.5 66.2,39.4 66.2,13.3 56.6,13.3 		"/>
		<polygon class="st0" points="56.6,12.5 56.6,12.5 66.2,12.5 66.2,12.5 66.2,12.5 56.8,3.9 52.4,3.9 52.4,12.5 		"/>
		<polygon class="st0" points="47.5,12.5 51.6,12.5 51.6,3.9 47.2,3.9 37.9,12.5 37.9,12.5 37.9,12.5 47.5,12.5 		"/>
		<polygon class="st0" points="56.2,29 52.4,29 52.4,39.9 65.8,39.9 		"/>
		<polygon class="st0" points="52.2,12.5 52.2,12.5 51.8,12.5 51.8,12.5 		"/>
	</g>
</g>
</svg>
