<svg xmlns="http://www.w3.org/2000/svg" viewBox="0 0 254 41.91"><defs><style>.cls-1{fill:#bab27c;}.cls-2{fill:#fff;}</style></defs><title>アセット 14</title><g id="レイヤー_2" data-name="レイヤー 2"><g id="レイヤー_1-2" data-name="レイヤー 1"><path class="cls-1" d="M62.32,1.24C59.72-2.06,55.86,2,59,4.15c3.78,2.56-2,1.64-3.8,3-2.63,2.1,3.52,6.54.26,7-1.52.21-3.1-.81-4.62-1.68a10.34,10.34,0,0,0-3.28-1.43c-.15,0-.44-.07-.83-.09v3.4c1.07-1.19,2.33-1.44,3.88-.15l.23.18c8.69,7.66,13.06,3.11,7.82-3.41-2.34-2.91-.17-2.95,3-5.55A3,3,0,0,0,62.32,1.24Z"/><path class="cls-2" d="M86.69,16.85h2.39l-7.5,7.43,7.75,8.54H86.88l-6.54-7.33-.45.44v6.89H78.11v-16h1.78v6.84Z"/><path class="cls-2" d="M96.5,16.85h2L102.62,24l4.06-7.12h2.06L103.51,26v6.86h-1.78V26Z"/><path class="cls-2" d="M132,24.86a8.33,8.33,0,1,1-8.32-8.28A8.28,8.28,0,0,1,132,24.86Zm-14.87,0a6.55,6.55,0,1,0,6.55-6.6A6.61,6.61,0,0,0,117.17,24.83Z"/><path class="cls-2" d="M145.38,32.82H143.6V18.5H138V16.85h13V18.5h-5.62Z"/><path class="cls-2" d="M173.43,24.86a8.32,8.32,0,1,1-8.32-8.28A8.28,8.28,0,0,1,173.43,24.86Zm-14.87,0a6.55,6.55,0,1,0,6.55-6.6A6.61,6.61,0,0,0,158.56,24.83Z"/><path class="cls-2" d="M183.52,31.16h7.34v1.66h-9.12v-16h1.78Z"/><path class="cls-2" d="M212.22,24.86a8.33,8.33,0,1,1-8.33-8.28A8.28,8.28,0,0,1,212.22,24.86Zm-14.87,0a6.55,6.55,0,1,0,6.54-6.6A6.6,6.6,0,0,0,197.35,24.83Z"/><path class="cls-2" d="M235.57,24.79c0,2.16-.19,3.94-1.65,5.63A7.88,7.88,0,0,1,228,33.09,8.26,8.26,0,1,1,234.87,20l-1.29,1.2a6.48,6.48,0,0,0-5.48-3,6.62,6.62,0,0,0-6.52,6.67,6.42,6.42,0,0,0,1.86,4.51,6.72,6.72,0,0,0,4.53,2c2.77,0,5.69-2,5.69-5H225.2V24.79Z"/><path class="cls-2" d="M241.76,16.85h2.05L247.88,24,252,16.85H254L248.77,26v6.86H247V26Z"/><path class="cls-2" d="M81.31,5.47V3.28H82V8.71h-.67V6.1H78.72V8.71h-.67V3.28h.67V5.47Z"/><path class="cls-2" d="M91,6a2.84,2.84,0,0,1-5.68,0A2.84,2.84,0,0,1,91,6Zm-.68,0A2.17,2.17,0,1,0,86,6a2.17,2.17,0,1,0,4.33,0Z"/><path class="cls-2" d="M96,8.71h-.68V3.9H93.42V3.28h4.4V3.9H96Z"/><path class="cls-2" d="M101.13,3.28H104V3.9H101.8V5.42H104V6H101.8V8.09H104v.62h-2.91Z"/><path class="cls-2" d="M108.88,8.09h2.45v.62H108.2V3.28h.68Z"/><polyline class="cls-2" points="42.69 32.93 31.55 32.93 39.46 23.96 42.69 23.96 42.69 32.93"/><polygon class="cls-2" points="39.19 10.75 31.28 10.75 31.28 32.62 39.19 23.66 39.19 10.75"/><rect class="cls-2" x="43.1" y="10.35" width="3.63"/><rect class="cls-2" x="39.19" y="10.35" width="3.51"/><polygon class="cls-2" points="46.73 23.67 54.63 32.63 54.63 10.75 46.73 10.75 46.73 23.67"/><polygon class="cls-2" points="46.73 10.35 46.73 10.35 54.63 10.35 54.63 10.35 54.58 10.35 46.88 3.22 43.1 3.22 43.1 10.35 46.73 10.35"/><polygon class="cls-2" points="39.19 10.35 42.69 10.35 42.69 3.22 38.97 3.22 31.27 10.35 31.28 10.35 31.28 10.35 39.19 10.35 39.19 10.35"/><polygon class="cls-2" points="46.44 23.96 43.1 23.96 43.1 32.93 54.36 32.93 46.44 23.96"/><rect class="cls-2" x="42.69" y="10.35" width="0.4"/><path class="cls-1" d="M36.86,16.05c-4,5.16-8.5,7.5-11.07,2.58-2.68-5.13-7.06-6.77-9.25-4.49-1.88,2-.46,4.46-2.38,5.48-1.37.73-3.47,2.1-3.89,3.88-1,4.16,1.66,5.46,1.46,7.79-.09,1.09-.48,2.64-3.45,2.7-2.26,0-5,.13-6.53,1.13-4.64,3.13,1,8.84,4.86,6,2.17-1.56,2.32-5.35,4.46-6.09s3.4.43,5.16.54c4.78.27,5.26-2.15,7.31-4.95s4-6.61,7.09-2.9C34.08,32,39.87,33.67,42,26.47c1.39-4.65,2.75-9.93,4.72-12.09V11C44.88,10.86,40.64,11.14,36.86,16.05Z"/></g></g></svg>