<svg xmlns="http://www.w3.org/2000/svg" viewBox="0 0 182.45 121.77"><defs><style>.cls-1,.cls-2{fill:none;stroke:#b9b28e;stroke-miterlimit:10;}.cls-1{stroke-width:0.75px;}.cls-2{stroke-width:1.2px;}</style></defs><title>e_fig</title><g id="レイヤー_2" data-name="レイヤー 2"><g id="レイヤー_1-2" data-name="レイヤー 1"><path class="cls-1" d="M125.86,121.17v-26a26,26,0,0,0-26,26"/><rect class="cls-1" x="25.16" y="92.23" width="4.38" height="53.5" transform="translate(146.33 91.63) rotate(90)"/><rect class="cls-1" x="80.02" y="72.67" width="16.83" height="48.5"/><line class="cls-1" x1="92.43" y1="96.21" x2="84.43" y2="91.92"/><line class="cls-1" x1="92.43" y1="99.98" x2="84.43" y2="95.69"/><line class="cls-1" x1="92.43" y1="103.96" x2="84.43" y2="99.66"/><line class="cls-1" x1="88.43" y1="121.17" x2="88.43" y2="72.67"/><line class="cls-1" x1="131.81" y1="45.85" x2="127.56" y2="45.85"/><line class="cls-1" x1="131.81" y1="65.7" x2="127.56" y2="65.7"/><line class="cls-1" x1="177.19" y1="74.12" x2="177.19" y2="69.87"/><line class="cls-1" x1="157.35" y1="74.12" x2="157.35" y2="69.87"/><line class="cls-1" x1="60.25" y1="31.79" x2="60.25" y2="27.54"/><line class="cls-1" x1="6.39" y1="31.79" x2="6.39" y2="27.54"/><path class="cls-1" d="M138.56,105.13h13.67a0,0,0,0,1,0,0v16.44a0,0,0,0,1,0,0H138.57a2,2,0,0,1-2-2V107.09A2,2,0,0,1,138.56,105.13Z" transform="translate(257.77 -31.06) rotate(90)"/><line class="cls-1" x1="152.63" y1="116.04" x2="136.19" y2="116.04"/><circle class="cls-1" cx="144.41" cy="110.1" r="0.99"/><circle class="cls-1" cx="90.31" cy="43.42" r="8.5"/><circle class="cls-1" cx="74.72" cy="43.42" r="4.72"/><rect class="cls-1" x="67.94" y="39.16" width="2.06" height="8.5" rx="1.03"/><circle class="cls-1" cx="105.86" cy="43.42" r="4.72"/><rect class="cls-1" x="110.58" y="39.16" width="2.06" height="8.5" rx="1.03" transform="translate(223.22 86.83) rotate(-180)"/><polygon class="cls-1" points="74.54 97.84 74.54 112.59 77.87 111.42 77.87 97.84 77.87 84.25 74.54 83.09 74.54 97.84"/><rect class="cls-1" x="69.94" y="96.77" width="18" height="2.15" transform="translate(-18.89 176.78) rotate(-90)"/><rect class="cls-2" x="0.6" y="29.67" width="181.25" height="91.5"/><line class="cls-2" x1="129.68" y1="121.17" x2="129.68" y2="29.67"/><polyline class="cls-2" points="129.68 42.41 153.1 42.41 153.1 72 181.85 72"/><line class="cls-2" x1="153.1" y1="29.67" x2="153.1" y2="42.42"/><circle class="cls-1" cx="167.6" cy="39" r="3.01"/><line class="cls-1" x1="167.6" y1="39" x2="167.6" y2="29.67"/><path class="cls-1" d="M30.75,6.72c-2,.46-3.48.69-3.94-1.28s.52-4.53,2.49-5a4.71,4.71,0,0,1,5,3.24C34.8,5.67,32.73,6.27,30.75,6.72Z"/><path class="cls-1" d="M40.7,13.3c.79-2.57,1.53-4.47,4.11-3.68s4.88,3.61,4.09,6.19-4.52,4.43-7.1,3.65S39.92,15.88,40.7,13.3Z"/><path class="cls-1" d="M28.3,18.57c.83,1.54,1.36,2.75-.19,3.57s-3.89.58-4.71-1A4.08,4.08,0,0,1,25,16.25C26.52,15.43,27.48,17,28.3,18.57Z"/><ellipse class="cls-1" cx="168.52" cy="106.74" rx="5.86" ry="8.65"/><rect class="cls-1" x="166.52" y="113.31" width="4" height="11.71" rx="1.34" transform="translate(287.68 -49.35) rotate(90)"/><line class="cls-1" x1="172.36" y1="117.15" x2="171.61" y2="114.4"/><line class="cls-1" x1="172.36" y1="117.15" x2="171.61" y2="114.4"/><line class="cls-1" x1="164.67" y1="117.17" x2="165.42" y2="114.42"/><path class="cls-1" d="M-2,60.69H54.5a2.21,2.21,0,0,1,2.21,2.21V112a2.21,2.21,0,0,1-2.21,2.21H-2a0,0,0,0,1,0,0V60.69A0,0,0,0,1-2,60.69Z" transform="translate(-60.09 114.79) rotate(-90)"/><polyline class="cls-1" points="0.6 102.74 10.21 102.74 54.1 102.74"/><line class="cls-1" x1="0.6" y1="93.62" x2="40.32" y2="102.74"/><path class="cls-1" d="M23.19,102.74a31.61,31.61,0,0,0-.36,3.94,29.84,29.84,0,0,0,.56,5s-3.63-.3-8-.34-8,.34-8,.34a31.11,31.11,0,0,0,.56-5,29.4,29.4,0,0,0-.37-3.93"/><path class="cls-1" d="M46.55,102.74a31.61,31.61,0,0,0-.36,3.94,30.47,30.47,0,0,0,.55,5s-3.62-.3-8-.34-8,.34-8,.34a31.11,31.11,0,0,0,.56-5,29.4,29.4,0,0,0-.37-3.93"/></g></g></svg>