<svg xmlns="http://www.w3.org/2000/svg" viewBox="0 0 257.12 119.12"><defs><style>.cls-1,.cls-2{fill:none;stroke:#b9b28e;stroke-miterlimit:10;}.cls-1{stroke-width:0.75px;}.cls-2{stroke-width:1.2px;}</style></defs><title>c_fig</title><g id="レイヤー_2" data-name="レイヤー 2"><g id="レイヤー_1-2" data-name="レイヤー 1"><line class="cls-1" x1="74.14" y1="114.26" x2="78.39" y2="114.26"/><line class="cls-1" x1="74.14" y1="91.64" x2="78.39" y2="91.64"/><path class="cls-1" d="M230.27,89.72v26h-26A26,26,0,0,1,230.27,89.72Z"/><polygon class="cls-1" points="140.25 112.35 125.5 112.35 126.66 115.68 140.25 115.68 153.83 115.68 155 112.35 140.25 112.35"/><rect class="cls-1" x="131.25" y="115.68" width="18" height="2.83"/><line class="cls-1" x1="113" y1="15.02" x2="113" y2="0.6"/><line class="cls-1" x1="88.08" y1="15.02" x2="88.08" y2="0.6"/><line class="cls-1" x1="98.81" y1="3.81" x2="94.52" y2="11.81"/><line class="cls-1" x1="102.59" y1="3.81" x2="98.29" y2="11.81"/><line class="cls-1" x1="106.56" y1="3.81" x2="102.27" y2="11.81"/><line class="cls-1" x1="113" y1="7.81" x2="88.08" y2="7.81"/><rect class="cls-1" x="180.43" y="68.52" width="11.83" height="10.6" transform="translate(372.7 147.64) rotate(180)"/><line class="cls-1" x1="76.27" y1="15.02" x2="192.27" y2="15.02"/><path class="cls-1" d="M237.9,16h13.67a0,0,0,0,1,0,0V32.44a0,0,0,0,1,0,0H237.91a2,2,0,0,1-2-2V18A2,2,0,0,1,237.9,16Z" transform="translate(219.53 267.98) rotate(-90)"/><line class="cls-1" x1="235.54" y1="21.54" x2="251.98" y2="21.54"/><circle class="cls-1" cx="243.76" cy="27.48" r="0.99"/><circle class="cls-1" cx="222.18" cy="18.98" r="3.01"/><line class="cls-1" x1="222.18" y1="18.98" x2="231.52" y2="18.98"/><path class="cls-1" d="M43.54,31.9c-2.25-2-3.83-3.61-1.84-5.86s5.91-3.28,8.16-1.29,2.41,6.63.42,8.88S45.78,33.89,43.54,31.9Z"/><path class="cls-1" d="M40.65,43.86c1.9-.64,3.55-1.24,5.21-.41a7.5,7.5,0,0,1,4,4,7.85,7.85,0,0,1-.47,5.77A7.65,7.65,0,0,1,45,56.8c-1.89.63-3.67-.07-5.33-.89s-3.77-1.67-4.41-3.57a8.54,8.54,0,0,1,.3-6C36.36,44.65,38.76,44.49,40.65,43.86Z"/><path class="cls-1" d="M27.14,39.14C26,41.46,25,43.14,22.66,42s-4.05-4.19-2.89-6.51,5-3.49,7.3-2.33S28.29,36.82,27.14,39.14Z"/><path class="cls-1" d="M26,94.92c2.5-.67,4.42-1,5.09,1.46s-.46,5.82-3,6.49-5.92-1.43-6.59-3.93S23.51,95.59,26,94.92Z"/><path class="cls-1" d="M36.52,84.52C34.48,83.15,33,82,34.38,80s4.43-3.31,6.48-1.94,2.69,5.1,1.33,7.15S38.57,85.88,36.52,84.52Z"/><line class="cls-1" x1="196.52" y1="33.25" x2="196.52" y2="37.5"/><line class="cls-1" x1="216.36" y1="33.25" x2="216.36" y2="37.5"/><line class="cls-1" x1="196.52" y1="76.95" x2="196.52" y2="81.2"/><line class="cls-1" x1="216.36" y1="76.95" x2="216.36" y2="81.2"/><polygon class="cls-2" points="230.27 115.68 230.27 118.52 0.6 118.52 0.6 0.6 256.52 0.6 256.52 79.12 230.27 79.12 230.27 89.72 230.27 115.68"/><polyline class="cls-2" points="230.27 79.12 192.27 79.12 192.27 0.6"/><line class="cls-2" x1="76.27" y1="0.6" x2="76.27" y2="118.52"/><polyline class="cls-2" points="231.27 0.6 231.27 35.35 192.27 35.35"/><line class="cls-2" x1="231.52" y1="16.41" x2="256.52" y2="16.41"/><path class="cls-1" d="M129.18,15h56.5a2.21,2.21,0,0,1,2.21,2.21V66.31a2.21,2.21,0,0,1-2.21,2.21h-56.5a0,0,0,0,1,0,0V15A0,0,0,0,1,129.18,15Z" transform="translate(317.08 83.53) rotate(180)"/><polyline class="cls-1" points="173.84 68.52 173.84 58.91 173.84 15.02"/><line class="cls-1" x1="164.72" y1="68.52" x2="173.84" y2="28.8"/><path class="cls-1" d="M173.85,45.92a29.23,29.23,0,0,0,3.93.37,31.34,31.34,0,0,0,5-.56s-.31,3.63-.35,8,.35,8,.35,8a30.68,30.68,0,0,0-5-.55,31.43,31.43,0,0,0-3.93.36"/><path class="cls-1" d="M173.85,22.56a29.23,29.23,0,0,0,3.93.37,31.34,31.34,0,0,0,5-.56s-.31,3.63-.35,8,.35,8,.35,8a30,30,0,0,0-5-.56,31.43,31.43,0,0,0-3.93.36"/><polyline class="cls-1" points="116.06 36.35 116.06 15.02 129.18 15.02 129.18 68.52 116.06 68.52 116.06 47.18"/><rect class="cls-1" x="111.89" y="36.35" width="13.75" height="10.83" transform="translate(237.53 83.53) rotate(180)"/><rect class="cls-1" x="187.89" y="15.02" width="4.38" height="53.5"/><ellipse class="cls-1" cx="244.27" cy="64.7" rx="5.86" ry="8.65"/><rect class="cls-1" x="242.27" y="71.27" width="4" height="11.71" rx="1.34" transform="translate(321.39 -167.15) rotate(90)"/><line class="cls-1" x1="248.11" y1="75.1" x2="247.37" y2="72.35"/><line class="cls-1" x1="248.11" y1="75.1" x2="247.37" y2="72.35"/><line class="cls-1" x1="240.43" y1="75.13" x2="241.18" y2="72.37"/></g></g></svg>