<svg xmlns="http://www.w3.org/2000/svg" viewBox="0 0 258.2 233.2"><defs><style>.cls-1,.cls-2,.cls-3{fill:none;stroke:#b9b28e;stroke-miterlimit:10;}.cls-1{stroke-width:0.75px;}.cls-2{stroke-width:1.2px;}</style></defs><title>d_fig</title><g id="レイヤー_2" data-name="レイヤー 2"><g id="レイヤー_1-2" data-name="レイヤー 1"><path class="cls-1" d="M257.62,95.35h-26a26,26,0,0,0,26,26"/><rect class="cls-1" x="178.97" y="123.85" width="78.63" height="18.92"/><polygon class="cls-2" points="257.6 92.1 179.35 92.1 179.35 0.6 0.6 0.6 0.6 232.6 179.35 232.6 179.35 168.85 179.35 142.77 257.6 142.77 257.6 92.1"/><line class="cls-2" x1="76.1" y1="0.6" x2="76.1" y2="232.6"/><polyline class="cls-2" points="76.1 168.6 127.72 168.6 179.35 168.6"/><line class="cls-2" x1="127.73" y1="232.6" x2="127.73" y2="168.6"/><rect class="cls-1" x="76.1" y="168.6" width="51.63" height="27.75"/><rect class="cls-1" x="81.92" y="173.55" width="39.99" height="17.85" rx="3.04"/><path class="cls-1" d="M165.68,173.48h13.67a0,0,0,0,1,0,0v16.44a0,0,0,0,1,0,0H165.69a2,2,0,0,1-2-2V175.44A2,2,0,0,1,165.68,173.48Z"/><line class="cls-1" x1="174.23" y1="173.48" x2="174.23" y2="189.92"/><circle class="cls-1" cx="168.29" cy="181.7" r="0.99"/><circle class="cls-3" cx="85.44" cy="214.93" r="3.01"/><line class="cls-3" x1="85.44" y1="214.93" x2="76.1" y2="214.93"/><rect class="cls-1" x="163.15" y="64.7" width="11.83" height="10.6" transform="translate(338.14 140.01) rotate(180)"/><rect class="cls-1" x="163.15" y="0.6" width="11.83" height="10.6" transform="translate(338.14 11.8) rotate(180)"/><rect class="cls-1" x="174.98" y="0.6" width="4.38" height="74.71"/><path class="cls-1" d="M29.45,40.68c0,3-1.39,3.34-4.41,3.34s-6.42-.33-6.42-3.34S22,33.16,25,33.16,29.45,37.66,29.45,40.68Z"/><path class="cls-1" d="M38.12,36.66a9.35,9.35,0,0,1-3.67-5.17c-.48-1.79.24-4.19,1.24-5.93s3.2-1.78,5-2.27,3.69-1.48,5.43-.48,2.37,3,2.85,4.8,1.14,4,.14,5.69a8,8,0,0,1-4.85,3.29C42.45,37.07,39.86,37.66,38.12,36.66Z"/><path class="cls-1" d="M44,46.14c2.51-.67,4.13,1.25,4.8,3.77s.52,6.05-2,6.72S39.9,55,39.23,52.48,41.52,46.81,44,46.14Z"/><path class="cls-1" d="M41.48,88.5c3-.79,5.21-1.21,6,1.73s-.54,6.85-3.49,7.64-7-1.68-7.75-4.62S38.54,89.29,41.48,88.5Z"/><path class="cls-1" d="M21.75,168.62c-2.6,0-4.56-.15-4.56-2.75s2-5.51,4.56-5.51,5.37,2.91,5.37,5.51S24.35,168.62,21.75,168.62Z"/><path class="cls-1" d="M32.32,134.87c2.51-.67,3-.16,3.7,2.35s.73,4.14-1.79,4.81-5-.29-5.68-2.81S29.8,135.54,32.32,134.87Z"/><path class="cls-1" d="M48.26,181.72c.85-2.05,1.47-2.14,3.52-1.29s3.18,1.65,2.33,3.7-2.8,3.25-4.85,2.4S47.41,183.77,48.26,181.72Z"/><polyline class="cls-1" points="23.73 232.6 23.73 192.97 23.73 186.47 0.6 186.47"/><line class="cls-1" x1="0.6" y1="193.04" x2="23.73" y2="193.04"/><line class="cls-1" x1="0.6" y1="198.54" x2="23.73" y2="198.54"/><line class="cls-1" x1="0.6" y1="204.85" x2="23.73" y2="204.85"/><line class="cls-1" x1="218.48" y1="123.85" x2="218.48" y2="142.77"/><line class="cls-1" x1="239.76" y1="137.02" x2="244.06" y2="129.02"/><line class="cls-1" x1="235.99" y1="137.02" x2="240.28" y2="129.02"/><line class="cls-1" x1="232.02" y1="137.02" x2="236.31" y2="129.02"/><line class="cls-1" x1="218.48" y1="133.02" x2="257.6" y2="133.02"/><line class="cls-1" x1="131.98" y1="166.48" x2="131.98" y2="170.73"/><line class="cls-1" x1="151.82" y1="166.48" x2="151.82" y2="170.73"/><line class="cls-1" x1="125.6" y1="219.69" x2="129.85" y2="219.69"/><line class="cls-1" x1="125.6" y1="199.85" x2="129.85" y2="199.85"/><line class="cls-1" x1="73.98" y1="114.43" x2="78.23" y2="114.43"/><line class="cls-1" x1="73.98" y1="91.81" x2="78.23" y2="91.81"/><polygon class="cls-1" points="173.52 145.28 173.52 162.71 176.86 161.34 176.86 145.28 176.86 129.22 173.52 127.84 173.52 145.28"/><rect class="cls-1" x="168.93" y="144.2" width="18" height="2.15" transform="translate(32.65 323.21) rotate(-90)"/><rect class="cls-1" x="76.1" y="116.95" width="35.01" height="16.62" rx="1.42"/><path class="cls-1" d="M66.91,142.77h35a0,0,0,0,1,0,0V158a1.42,1.42,0,0,1-1.42,1.42H66.91a0,0,0,0,1,0,0V142.77A0,0,0,0,1,66.91,142.77Z" transform="translate(-66.67 235.49) rotate(-90)"/><rect class="cls-1" x="92.72" y="151.96" width="35.01" height="16.62" rx="1.42"/><rect class="cls-1" x="101.91" y="126.15" width="35.01" height="16.62" rx="1.42" transform="translate(-15.04 253.87) rotate(-90)"/><path class="cls-1" d="M116.28,11.2h56.5A2.21,2.21,0,0,1,175,13.41V62.5a2.21,2.21,0,0,1-2.21,2.21h-56.5a0,0,0,0,1,0,0V11.2A0,0,0,0,1,116.28,11.2Z" transform="translate(291.26 75.91) rotate(180)"/><polyline class="cls-1" points="160.94 64.7 160.94 55.09 160.94 11.2"/><line class="cls-1" x1="151.81" y1="64.7" x2="160.94" y2="24.98"/><path class="cls-1" d="M160.94,42.11a31.17,31.17,0,0,0,3.93.37,31.14,31.14,0,0,0,5-.56s-.31,3.62-.34,8,.34,8,.34,8a30.5,30.5,0,0,0-5-.55,29.8,29.8,0,0,0-3.93.36"/><path class="cls-1" d="M160.94,18.75a31.17,31.17,0,0,0,3.93.37,31.14,31.14,0,0,0,5-.56s-.31,3.62-.34,8,.34,8,.34,8a30.5,30.5,0,0,0-5-.55,29.8,29.8,0,0,0-3.93.36"/><polyline class="cls-1" points="103.15 32.54 103.15 11.2 116.28 11.2 116.28 64.7 103.15 64.7 103.15 43.37"/><rect class="cls-1" x="98.99" y="32.54" width="13.75" height="10.83" transform="translate(211.72 75.91) rotate(180)"/><ellipse class="cls-1" cx="164.93" cy="208.58" rx="8.65" ry="5.86"/><rect class="cls-1" x="175.35" y="202.72" width="4" height="11.71" rx="1.34"/><line class="cls-1" x1="175.33" y1="204.74" x2="172.58" y2="205.48"/><line class="cls-1" x1="175.33" y1="204.74" x2="172.58" y2="205.48"/><line class="cls-1" x1="175.35" y1="212.42" x2="172.6" y2="211.67"/><circle class="cls-1" cx="86.43" cy="182.69" r="0.99"/><polyline class="cls-3" points="150.35 232.6 150.35 221.72 179.35 221.72"/><circle class="cls-1" cx="101.91" cy="142.77" r="5.79"/><rect class="cls-1" x="92.72" y="133.57" width="18.39" height="18.39" rx="1.42"/></g></g></svg>