<svg xmlns="http://www.w3.org/2000/svg" viewBox="0 0 260.87 119.45"><defs><style>.cls-1,.cls-2{fill:none;stroke:#b9b28e;stroke-miterlimit:10;}.cls-1{stroke-width:0.75px;}.cls-2{stroke-width:1.2px;}</style></defs><title>d_fig</title><g id="レイヤー_2" data-name="レイヤー 2"><g id="レイヤー_1-2" data-name="レイヤー 1"><line class="cls-1" x1="210.1" y1="15.48" x2="260.27" y2="15.48"/><line class="cls-2" x1="103.44" y1="0.6" x2="103.44" y2="0.6"/><polygon class="cls-2" points="156.77 0.6 260.27 0.6 260.27 79.18 233.93 79.18 233.93 118.85 0.6 118.85 0.6 0.6 103.44 0.6 103.43 53.81 103.43 83.85 156.77 83.85 156.77 0.6"/><polyline class="cls-2" points="210.1 66.72 210.1 79.18 233.93 79.18"/><polyline class="cls-1" points="209.86 66.72 209.86 84.07 156.77 84.07"/><polyline class="cls-2" points="156.77 66.72 210.1 66.72 210.1 0.6"/><line class="cls-1" x1="184.77" y1="79.18" x2="189.06" y2="71.18"/><line class="cls-1" x1="181" y1="79.18" x2="185.29" y2="71.18"/><line class="cls-1" x1="177.02" y1="79.18" x2="181.32" y2="71.18"/><line class="cls-1" x1="156.77" y1="75.18" x2="210.1" y2="75.18"/><ellipse class="cls-1" cx="247.75" cy="29.9" rx="5.86" ry="8.65"/><rect class="cls-1" x="245.75" y="11.62" width="4" height="11.71" rx="1.34" transform="translate(230.28 265.23) rotate(-90)"/><line class="cls-1" x1="243.91" y1="19.49" x2="244.66" y2="22.24"/><line class="cls-1" x1="243.91" y1="19.49" x2="244.66" y2="22.24"/><line class="cls-1" x1="251.6" y1="19.47" x2="250.85" y2="22.22"/><path class="cls-1" d="M219.86,15.07h13.67a0,0,0,0,1,0,0V31.51a0,0,0,0,1,0,0H219.87a2,2,0,0,1-2-2V17A2,2,0,0,1,219.86,15.07Z" transform="translate(202.43 249) rotate(-90)"/><line class="cls-1" x1="217.5" y1="20.6" x2="233.93" y2="20.6"/><circle class="cls-1" cx="225.71" cy="26.54" r="0.99"/><path class="cls-1" d="M5,11.2h56.5a2.21,2.21,0,0,1,2.21,2.21V62.5a2.21,2.21,0,0,1-2.21,2.21H5a0,0,0,0,1,0,0V11.2A0,0,0,0,1,5,11.2Z"/><polyline class="cls-1" points="19.01 11.2 19.01 20.82 19.01 64.7"/><polyline class="cls-1" points="76.8 43.37 76.8 64.7 63.67 64.7 63.67 11.2 76.8 11.2 76.8 32.54"/><rect class="cls-1" x="67.21" y="32.54" width="13.75" height="10.83"/><line class="cls-1" x1="28.14" y1="11.2" x2="19.01" y2="50.92"/><rect class="cls-1" x="4.96" y="0.6" width="11.83" height="10.6"/><rect class="cls-1" x="4.96" y="64.7" width="11.83" height="10.6"/><rect class="cls-1" x="0.6" y="0.6" width="4.38" height="74.71" transform="translate(5.58 75.91) rotate(180)"/><polygon class="cls-1" points="50.15 112.68 32.72 112.68 34.09 116.02 50.15 116.02 66.21 116.02 67.59 112.68 50.15 112.68"/><rect class="cls-1" x="41.15" y="116.02" width="18" height="2.83"/><circle class="cls-1" cx="166.1" cy="48.26" r="3.01"/><line class="cls-1" x1="166.1" y1="48.26" x2="156.77" y2="48.26"/><path class="cls-1" d="M233.93,114.6H208a26,26,0,0,1,26-26"/><line class="cls-1" x1="230.16" y1="81.31" x2="230.16" y2="77.06"/><line class="cls-1" x1="213.15" y1="81.31" x2="213.15" y2="77.06"/><line class="cls-1" x1="212.22" y1="43.32" x2="207.97" y2="43.32"/><line class="cls-1" x1="212.22" y1="63.16" x2="207.97" y2="63.16"/><line class="cls-1" x1="129.33" y1="86.05" x2="129.33" y2="81.8"/><line class="cls-1" x1="109.49" y1="86.05" x2="109.49" y2="81.8"/><line class="cls-1" x1="149.17" y1="86.05" x2="149.17" y2="81.8"/><line class="cls-1" x1="129.33" y1="86.05" x2="129.33" y2="81.8"/><line class="cls-1" x1="158.89" y1="9" x2="154.64" y2="9"/><line class="cls-1" x1="158.89" y1="23.17" x2="154.64" y2="23.17"/><path class="cls-1" d="M138.41,34c0-2.06.12-3.6,2.17-3.6S145,31.93,145,34a4.8,4.8,0,0,1-4.37,4.24C138.53,38.23,138.41,36,138.41,34Z"/><path class="cls-1" d="M124.43,50.29c-2.73,0-4.73-.22-4.73-3.94s2-7.9,4.73-7.9,5.9,4.18,5.9,7.9S127.17,50.29,124.43,50.29Z"/><path class="cls-1" d="M123.82,26.43c-1.72.46-3,.71-3.49-1s.32-4,2-4.44a4.13,4.13,0,0,1,4.51,2.69C127.32,25.39,125.53,26,123.82,26.43Z"/><path class="cls-1" d="M19,33.8a31.17,31.17,0,0,0-3.93-.37,31.14,31.14,0,0,0-5,.56s.31-3.62.34-8-.34-8-.34-8a30.5,30.5,0,0,0,5,.55A29.8,29.8,0,0,0,19,18.21"/><path class="cls-1" d="M19,57.16a29.4,29.4,0,0,0-3.93-.37,31.14,31.14,0,0,0-5,.56s.31-3.63.34-8-.34-8-.34-8a30.5,30.5,0,0,0,5,.55A31.62,31.62,0,0,0,19,41.57"/><rect class="cls-1" x="156.77" y="0.6" width="53.33" height="27.75"/><rect class="cls-1" x="162.59" y="5.55" width="42.28" height="17.85" rx="3.04"/><circle class="cls-1" cx="167.1" cy="14.69" r="0.99"/></g></g></svg>