<svg xmlns="http://www.w3.org/2000/svg" viewBox="0 0 208.2 92.7"><defs><style>.cls-1,.cls-2{fill:none;stroke:#b9b28e;stroke-miterlimit:10;}.cls-1{stroke-width:0.75px;}.cls-2{stroke-width:1.2px;}</style></defs><title>a_fig</title><g id="レイヤー_2" data-name="レイヤー 2"><g id="レイヤー_1-2" data-name="レイヤー 1"><line class="cls-1" x1="15.02" y1="0.6" x2="15.02" y2="92.1"/><polyline class="cls-2" points="155.1 92.1 155.1 0.6 207.6 0.6 207.6 92.1 148.47 92.1"/><line class="cls-2" x1="195.54" y1="0.6" x2="195.54" y2="34.68"/><polyline class="cls-2" points="155.1 60.52 117.02 60.52 117.02 0.6 0.6 0.6 0.6 92.1 149.35 92.1"/><line class="cls-2" x1="155.1" y1="34.68" x2="207.6" y2="34.68"/><path class="cls-1" d="M193.93,48.23H207.6a0,0,0,0,1,0,0V64.66a0,0,0,0,1,0,0H193.94a2,2,0,0,1-2-2V50.18A2,2,0,0,1,193.93,48.23Z"/><line class="cls-1" x1="159.35" y1="32.56" x2="159.35" y2="36.81"/><line class="cls-1" x1="179.19" y1="32.56" x2="179.19" y2="36.81"/><line class="cls-1" x1="152.98" y1="87.85" x2="157.23" y2="87.85"/><line class="cls-1" x1="152.98" y1="68.01" x2="157.23" y2="68.01"/><line class="cls-1" x1="123.93" y1="58.39" x2="123.93" y2="62.64"/><line class="cls-1" x1="146.56" y1="58.39" x2="146.56" y2="62.64"/><path class="cls-1" d="M131.56,29.07c0,1.8-.11,3.16-1.91,3.16s-3.82-1.36-3.82-3.16a4.2,4.2,0,0,1,3.82-3.72C131.45,25.35,131.56,27.27,131.56,29.07Z"/><path class="cls-1" d="M139.25,21.77c-2.08-1.2-3.57-2.22-2.38-4.29s4.11-3.5,6.18-2.3,2.94,4.8,1.74,6.87S141.32,23,139.25,21.77Z"/><path class="cls-1" d="M141.32,33.56c1.5-.4,2.65-.62,3.05.88s-.27,3.49-1.77,3.89A3.62,3.62,0,0,1,138.65,36C138.25,34.48,139.82,34,141.32,33.56Z"/><path class="cls-1" d="M148.48,92.1v-26a26,26,0,0,0-26,26"/><line class="cls-1" x1="202.48" y1="48.23" x2="202.48" y2="64.66"/><circle class="cls-1" cx="196.54" cy="56.44" r="0.99"/><circle class="cls-1" cx="186.21" cy="18.11" r="3.01"/><line class="cls-1" x1="186.21" y1="18.11" x2="195.54" y2="18.11"/><line class="cls-1" x1="15.02" y1="63.73" x2="0.6" y2="63.73"/><polygon class="cls-1" points="56.33 85.91 41.58 85.91 42.75 89.24 56.33 89.24 69.91 89.24 71.08 85.91 56.33 85.91"/><rect class="cls-1" x="47.33" y="89.24" width="18" height="2.83"/><line class="cls-1" x1="3.98" y1="79.91" x2="11.98" y2="84.2"/><line class="cls-1" x1="3.98" y1="76.14" x2="11.98" y2="80.43"/><line class="cls-1" x1="3.98" y1="72.17" x2="11.98" y2="76.46"/><line class="cls-1" x1="7.98" y1="63.73" x2="7.98" y2="92.08"/><path class="cls-1" d="M15,5.29h56.5A2.21,2.21,0,0,1,73.73,7.5V56.58a2.21,2.21,0,0,1-2.21,2.21H15a0,0,0,0,1,0,0V5.29A0,0,0,0,1,15,5.29Z"/><polyline class="cls-1" points="29.06 5.29 29.06 14.9 29.06 58.79"/><line class="cls-1" x1="38.19" y1="5.29" x2="29.07" y2="45.01"/><path class="cls-1" d="M29.06,27.88a29.63,29.63,0,0,0-3.93-.36,30.68,30.68,0,0,0-5,.55s.31-3.62.34-8-.34-8-.34-8a31.34,31.34,0,0,0,5,.56,31.17,31.17,0,0,0,3.93-.37"/><path class="cls-1" d="M29.06,51.24a31.17,31.17,0,0,0-3.93-.37,31.34,31.34,0,0,0-5,.56s.31-3.62.34-8-.34-8-.34-8a31.34,31.34,0,0,0,5,.56,31.17,31.17,0,0,0,3.93-.37"/><polyline class="cls-1" points="86.85 37.45 86.85 58.79 73.72 58.79 73.72 5.29 86.85 5.29 86.85 26.62"/><rect class="cls-1" x="77.27" y="26.62" width="13.75" height="10.83"/><ellipse class="cls-1" cx="193.18" cy="80.83" rx="8.65" ry="5.86"/><rect class="cls-1" x="203.6" y="74.98" width="4" height="11.71" rx="1.34"/><line class="cls-1" x1="203.58" y1="76.99" x2="200.83" y2="77.74"/><line class="cls-1" x1="203.58" y1="76.99" x2="200.83" y2="77.74"/><line class="cls-1" x1="203.6" y1="84.67" x2="200.85" y2="83.93"/></g></g></svg>